<svg width="67" height="66" xmlns="http://www.w3.org/2000/svg" xmlns:xlink="http://www.w3.org/1999/xlink" overflow="hidden"><defs><clipPath id="clip0"><rect x="496" y="476" width="67" height="66"/></clipPath></defs><g clip-path="url(#clip0)" transform="translate(-496 -476)"><path d="M17.1875 48.8812C18.5625 50.2562 18.5625 52.3875 17.1875 53.7625L11.3438 55.6875 10.3125 54.6562 12.2375 48.8125C13.6812 47.5062 15.8125 47.5062 17.1875 48.8812ZM44.2063 12.9937 9.83125 47.4375 5.5 60.5 18.6313 56.1687 53.0062 21.7938" transform="matrix(1.01515 0 0 1 496 476)"/><path d="M59.7438 11.1375 54.8625 6.25625C53.7625 5.15625 52.0437 5.15625 50.9437 6.25625L46.1312 11.0688 54.8625 19.8 59.675 14.9875C60.8438 13.9562 60.8438 12.2375 59.7438 11.1375Z" transform="matrix(1.01515 0 0 1 496 476)"/></g></svg>