<svg width="74" height="74" xmlns="http://www.w3.org/2000/svg" xmlns:xlink="http://www.w3.org/1999/xlink" overflow="hidden"><defs><clipPath id="clip0"><rect x="422" y="468" width="74" height="74"/></clipPath></defs><g clip-path="url(#clip0)" transform="translate(-422 -468)"><path d="M458.989 475.708C442.821 475.708 429.714 488.815 429.714 504.984 429.714 521.152 442.821 534.259 458.989 534.259 475.158 534.259 488.265 521.152 488.265 504.984 488.265 504.983 488.265 504.982 488.265 504.981 488.27 488.82 475.173 475.714 459.012 475.708 459.005 475.708 458.997 475.708 458.989 475.708ZM473.341 507.59 461.595 507.59 461.595 519.333 456.383 519.333 456.383 507.587 444.637 507.587 444.637 502.375 456.383 502.375 456.383 490.629 461.595 490.629 461.595 502.375 473.341 502.375Z"/></g></svg>