<svg width="96" height="96" xmlns="http://www.w3.org/2000/svg" xmlns:xlink="http://www.w3.org/1999/xlink" overflow="hidden"><defs><clipPath id="clip0"><rect x="651" y="450" width="96" height="96"/></clipPath></defs><g clip-path="url(#clip0)" transform="translate(-651 -450)"><path d="M685 474 691 474 691 489 685 489Z"/><path d="M717 493 681 493 681 470 717 470 717 493ZM699 519C693.5 519 689 514.5 689 509 689 503.5 693.5 499 699 499 704.5 499 709 503.5 709 509 709 514.5 704.5 519 699 519ZM729 464 717 464 681 464 675 464 665 474 665 528C665 530.2 666.8 532 669 532L729 532C731.2 532 733 530.2 733 528L733 468C733 465.8 731.2 464 729 464Z"/><path d="M696 506 702 506 702 512 696 512Z"/></g></svg>